:SAMPLES-PER-SECOND 30
:FULLY-SPECIFIED
:DEGREES
269
root  -35.234 34.5269 11.3322 -175.092 65.8692 178.26
RightUpLeg  -9.51692 -20.3493 2.23669
RightLeg  17.9636 -10.4468 -2.64069
RightFoot  -5.18118 0.027474 1.22085
RightToes  -14.8635 -0.0559427 -0.135281
Spine  -0.263845 0.766836 1.22272
Spine1  -0.491759 1.58644 3.18099
HEad  -63.901 7.69149 -0.2545
LeftShoulder1  -1.94126e-019 -3.10601e-018 -2.51263e-017
LeftArm  -0.544241 27.0639 -80.2476
LeftForeArm  33.4631 -46.1878 -9.30082
LeftHand  0.0835045 -6.66227 -0.45565
RightShoulder  -4.96962e-017 0 -2.36833e-017
RightArm  -16.3166 -13.6784 74.2804
RightForeArm  58.1311 16.3024 1.72441
RightHand  -0.352944 -2.0961 -11.6408
LeftUpLeg  -13.5527 11.449 6.22723
LeftLeg  19.0316 9.45727 2.5798
LeftFoot  2.1106 -0.00670269 0.525423
LeftToes  -29.9314 1.83942e-006 5.51297e-008
270
root  -35.2202 34.5058 11.2037 -175.503 65.3332 178.148
RightUpLeg  -9.24177 -20.4253 1.86933
RightLeg  18.4315 -10.836 -2.83147
RightFoot  -5.36842 0.0320859 1.3001
RightToes  -15.1058 -0.057152 -0.137981
Spine  -0.319591 0.418832 1.35378
Spine1  -0.609027 0.892355 3.44378
HEad  -63.8703 8.98815 0.285974
LeftShoulder1  -1.94126e-019 -3.10601e-018 -2.51263e-017
LeftArm  3.22942 24.9729 -79.5594
LeftForeArm  33.2746 -43.1344 -8.25598
LeftHand  -0.0740292 -5.5502 1.10482
RightShoulder  -4.96962e-017 0 -2.36833e-017
RightArm  -19.464 -13.183 74.2883
RightForeArm  63.7241 12.2624 1.65224
RightHand  -0.361927 -1.91779 -11.3695
LeftUpLeg  -13.1458 14.0444 6.2451
LeftLeg  19.0488 11.3032 3.08061
LeftFoot  4.12185 -0.0355872 1.01529
LeftToes  -30.3286 1.83942e-006 5.51297e-008
271
root  -35.2277 34.4692 11.013 -176.453 64.4745 177.57
RightUpLeg  -9.04896 -21.0069 1.11761
RightLeg  19.4373 -11.0084 -3.08205
RightFoot  -5.75205 0.0394695 1.40186
RightToes  -15.6612 -0.0586148 -0.141054
Spine  -0.350256 -0.00982474 1.42784
Spine1  -0.683296 0.0475292 3.5772
HEad  -63.3329 9.98947 0.962394
LeftShoulder1  -1.94126e-019 -3.10601e-018 -2.51263e-017
LeftArm  5.70941 22.8088 -79.4022
LeftForeArm  34.8461 -39.7238 -7.10387
LeftHand  0.0333018 -5.76872 -0.0208007
RightShoulder  -4.96962e-017 0 -2.36833e-017
RightArm  -21.4623 -13.5734 74.1788
RightForeArm  66.8961 10.4457 1.53906
RightHand  -0.361968 -1.81109 -11.3469
LeftUpLeg  -12.6762 15.3966 5.87776
LeftLeg  18.517 10.0732 2.6498
LeftFoot  5.86938 -0.0489858 1.23899
LeftToes  -29.9109 1.83942e-006 5.51297e-008
272
root  -35.2737 34.4342 10.8208 -177.035 63.5462 177.276
RightUpLeg  -9.04406 -21.2565 0.52781
RightLeg  20.5072 -11.5692 -3.46899
RightFoot  -5.99807 0.0474651 1.52559
RightToes  -16.1525 -0.0610647 -0.14519
Spine  -0.42532 -0.500781 1.54199
Spine1  -0.851771 -0.919194 3.78744
HEad  -62.4871 10.6482 1.76624
LeftShoulder1  -1.94126e-019 -3.10601e-018 -2.51263e-017
LeftArm  7.03159 20.8864 -79.7659
LeftForeArm  37.0907 -35.8689 -5.9129
LeftHand  0.0651511 -6.07451 -0.325744
RightShoulder  -4.96962e-017 0 -2.36833e-017
RightArm  -21.212 -14.8636 73.9504
RightForeArm  66.2776 10.8466 1.53285
RightHand  -0.354599 -1.87552 -11.5323
LeftUpLeg  -12.6669 15.4789 5.45749
LeftLeg  18.7188 9.20857 2.45897
LeftFoot  5.86066 -0.042928 1.14273
LeftToes  -28.8677 1.83942e-006 5.51297e-008
273
root  -35.2962 34.4423 10.5634 -178.481 63.0993 176.31
RightUpLeg  -8.53542 -21.1387 -0.581851
RightLeg  21.2033 -11.9797 -3.74778
RightFoot  -5.95564 0.0492949 1.5702
RightToes  -16.8235 -0.0638733 -0.150804
Spine  -0.399931 -0.878561 1.55641
Spine1  -0.819212 -1.67412 3.8081
HEad  -61.1782 10.9108 2.47269
LeftShoulder1  -1.94126e-019 -3.10601e-018 -2.51263e-017
LeftArm  7.02894 19.3166 -80.507
LeftForeArm  38.5695 -31.6714 -4.87924
LeftHand  0.0327828 -5.9232 -0.00660014
RightShoulder  -4.96962e-017 0 -2.36833e-017
RightArm  -19.903 -16.6039 73.751
RightForeArm  63.0667 12.1972 1.44194
RightHand  -0.359723 -1.75908 -11.3396
LeftUpLeg  -11.7972 13.2161 4.72548
LeftLeg  18.3567 11.0155 2.86196
LeftFoot  6.0786 -0.0588762 1.379
LeftToes  -27.522 1.83942e-006 5.51297e-008
274
root  -35.3048 34.4733 10.2933 179.86 63.3875 175.241
RightUpLeg  -7.6853 -20.2661 -1.70951
RightLeg  21.3113 -12.4489 -3.91714
RightFoot  -5.73237 0.0474802 1.57444
RightToes  -17.3167 -0.0668605 -0.154905
Spine  -0.366523 -0.942804 1.47837
Spine1  -0.75676 -1.81294 3.6548
HEad  -59.7934 10.3194 3.44897
LeftShoulder1  -1.94126e-019 -3.10601e-018 -2.51263e-017
LeftArm  4.29107 18.5843 -81.3629
LeftForeArm  41.2169 -28.2534 -4.6022
LeftHand  -0.0841933 -5.36562 1.22284
RightShoulder  -4.96962e-017 0 -2.36833e-017
RightArm  -18.2071 -18.9042 73.698
RightForeArm  58.0974 14.0891 1.21997
RightHand  -0.333598 -1.87903 -10.8434
LeftUpLeg  -10.4288 10.6304 3.95646
LeftLeg  17.7201 13.8071 3.41246
LeftFoot  6.2713 -0.0830319 1.74134
LeftToes  -26.4408 1.83942e-006 5.51297e-008
275
root  -35.3174 34.5092 10.0694 179.378 64.4615 174.891
RightUpLeg  -7.34031 -19.0492 -2.1661
RightLeg  20.8995 -12.57 -3.85626
RightFoot  -5.22607 0.0382101 1.46515
RightToes  -17.8915 -0.0700191 -0.159656
Spine  -0.508349 -0.847562 1.52734
Spine1  -1.03889 -1.62997 3.76592
HEad  -58.3934 9.38919 4.1195
LeftShoulder1  -1.94126e-019 -3.10601e-018 -2.51263e-017
LeftArm  1.40771 18.9359 -81.976
LeftForeArm  41.2757 -26.5235 -4.5357
LeftHand  -0.193974 -4.30513 2.6044
RightShoulder  -4.96962e-017 0 -2.36833e-017
RightArm  -16.9126 -21.2214 73.532
RightForeArm  54.1075 15.7539 1.09855
RightHand  -0.312249 -1.88596 -10.1502
LeftUpLeg  -9.57332 10.0749 3.55926
LeftLeg  17.1174 15.435 3.63556
LeftFoot  6.35491 -0.0971912 1.9547
LeftToes  -26.1517 1.83942e-006 5.51297e-008
276
root  -35.348 34.5412 9.86659 179.079 65.9156 174.646
RightUpLeg  -7.16007 -18.2446 -2.5402
RightLeg  20.3562 -11.9827 -3.55655
RightFoot  -4.63443 0.0259269 1.26635
RightToes  -18.549 -0.0735186 -0.165055
Spine  -0.670006 -0.706711 1.59551
Spine1  -1.36244 -1.35346 3.91196
HEad  -57.3558 7.74885 4.61658
LeftShoulder1  -1.94126e-019 -3.10601e-018 -2.51263e-017
LeftArm  -1.09107 20.2608 -82.4162
LeftForeArm  39.5453 -26.1549 -4.46081
LeftHand  -0.284423 -3.24109 4.06948
RightShoulder  -4.96962e-017 0 -2.36833e-017
RightArm  -16.8078 -23.0853 73.401
RightForeArm  52.2628 16.8007 1.164
RightHand  -0.307525 -1.67568 -9.44933
LeftUpLeg  -9.00316 11.3259 3.32472
LeftLeg  16.8468 15.6458 3.60718
LeftFoot  6.28376 -0.0968126 1.95642
LeftToes  -26.0784 1.83942e-006 5.51297e-008
277
root  -35.4005 34.5705 9.69385 179.162 67.3455 174.701
RightUpLeg  -7.02139 -17.9211 -2.75636
RightLeg  19.5279 -10.9793 -3.09265
RightFoot  -3.95583 0.0140673 1.02874
RightToes  -19.3976 -0.0774357 -0.171961
Spine  -0.792 -0.675282 1.69057
Spine1  -1.61366 -1.29317 4.10398
HEad  -57.2563 6.08193 4.5964
LeftShoulder1  -1.94126e-019 -3.10601e-018 -2.51263e-017
LeftArm  -2.22237 22.1857 -82.5836
LeftForeArm  36.3696 -26.9892 -4.45734
LeftHand  -0.363666 -2.15936 5.79034
RightShoulder  -4.96962e-017 0 -2.36833e-017
RightArm  -17.2891 -24.0193 73.4648
RightForeArm  52.157 16.6486 1.14734
RightHand  -0.315718 -1.62166 -9.5745
LeftUpLeg  -8.91836 12.4168 3.19678
LeftLeg  17.1844 15.9817 3.78018
LeftFoot  6.02563 -0.0926226 1.92124
LeftToes  -25.3219 1.83942e-006 5.51297e-008
278
root  -35.4819 34.5876 9.57394 179.739 68.6999 175.223
RightUpLeg  -6.95025 -17.5959 -2.68819
RightLeg  18.5876 -10.0606 -2.66077
RightFoot  -3.32773 0.00625875 0.833828
RightToes  -19.9301 -0.0810695 -0.17626
Spine  -0.888728 -0.677232 1.87429
Spine1  -1.81601 -1.29777 4.47062
HEad  -57.6145 4.5188 4.02326
LeftShoulder1  -1.94126e-019 -3.10601e-018 -2.51263e-017
LeftArm  -3.33684 24.2429 -82.8776
LeftForeArm  33.7938 -28.1679 -4.52501
LeftHand  -0.401763 -2.16195 6.37502
RightShoulder  -4.96962e-017 0 -2.36833e-017
RightArm  -18.6988 -24.3208 73.4945
RightForeArm  53.1152 15.8408 1.11981
RightHand  -0.319397 -1.63769 -9.72839
LeftUpLeg  -9.18753 13.3369 3.24451
LeftLeg  17.9464 16.3704 4.09612
LeftFoot  5.61708 -0.0826701 1.84661
LeftToes  -24.747 1.83942e-006 5.51297e-008
279
root  -35.5736 34.5904 9.49252 -179.787 70.1644 175.623
RightUpLeg  -7.0579 -16.8048 -2.5598
RightLeg  17.8901 -9.46126 -2.38172
RightFoot  -2.90631 0.00252653 0.716691
RightToes  -20.353 -0.0834355 -0.179655
Spine  -0.948287 -0.682009 1.99414
Spine1  -1.94336 -1.3082 4.70437
HEad  -57.5629 3.56223 3.93723
LeftShoulder1  -1.94126e-019 -3.10601e-018 -2.51263e-017
LeftArm  -3.74227 26.0024 -82.9475
LeftForeArm  32.2381 -29.3358 -4.68045
LeftHand  -0.397976 -2.16346 6.31557
RightShoulder  -4.96962e-017 0 -2.36833e-017
RightArm  -20.4433 -24.0834 73.6302
RightForeArm  54.8772 14.4655 1.21408
RightHand  -0.316126 -1.8205 -10.0986
LeftUpLeg  -9.48478 14.4449 3.29069
LeftLeg  18.7199 16.6497 4.39917
LeftFoot  5.15304 -0.0709004 1.73707
LeftToes  -24.2446 1.83942e-006 5.51297e-008
280
root  -35.6847 34.5941 9.43142 -179.198 71.6744 176.114
RightUpLeg  -7.32192 -16.1395 -2.38833
RightLeg  17.3286 -8.72576 -2.10798
RightFoot  -2.39643 -0.000563233 0.590042
RightToes  -20.897 -0.0860514 -0.182992
Spine  -1.01212 -0.455178 2.20965
Spine1  -2.06535 -0.856484 5.14254
HEad  -57.6917 2.32131 3.54002
LeftShoulder1  -1.94126e-019 -3.10601e-018 -2.51263e-017
LeftArm  -3.70646 26.8493 -83.5648
LeftForeArm  32.4719 -28.8783 -4.52867
LeftHand  -0.399203 -2.35806 6.18942
RightShoulder  -4.96962e-017 0 -2.36833e-017
RightArm  -22.8803 -23.948 73.2764
RightForeArm  56.9787 13.1177 1.36489
RightHand  -0.309236 -1.9095 -10.1148
LeftUpLeg  -9.75729 15.3257 3.33546
LeftLeg  19.3285 17.1948 4.73055
LeftFoot  4.76183 -0.0620197 1.67202
LeftToes  -23.7659 1.83942e-006 5.51297e-008
281
root  -35.807 34.5671 9.38706 -178.285 73.0081 176.993
RightUpLeg  -7.87209 -15.9876 -2.15821
RightLeg  17.4337 -7.68311 -1.87309
RightFoot  -2.03366 -0.00231451 0.483932
RightToes  -21.2156 -0.0887626 -0.186523
Spine  -0.933151 -0.452204 2.08628
Spine1  -1.91647 -0.858006 4.86369
HEad  -57.912 2.32479 4.53821
LeftShoulder1  -1.94126e-019 -3.10601e-018 -2.51263e-017
LeftArm  -3.23109 27.0721 -82.8106
LeftForeArm  33.2417 -29.3173 -4.62587
LeftHand  -0.330084 -2.85636 4.87571
RightShoulder  -4.96962e-017 0 -2.36833e-017
RightArm  -24.7677 -23.4061 74.1005
RightForeArm  59.1211 11.8478 1.48559
RightHand  -0.309058 -2.09286 -10.6502
LeftUpLeg  -10.2375 15.7593 3.48416
LeftLeg  20.4352 17.9304 5.29198
LeftFoot  4.14722 -0.0497514 1.53559
LeftToes  -23.4898 1.83942e-006 5.51297e-008
282
root  -35.9413 34.5753 9.34238 -177.003 73.8721 178.278
RightUpLeg  -7.97081 -16.1265 -1.87466
RightLeg  16.7863 -6.79764 -1.57748
RightFoot  -1.26099 -0.0030753 0.346676
RightToes  -21.7437 -0.0913909 -0.190692
Spine  -0.890374 -0.272401 2.0939
Spine1  -1.82731 -0.507561 4.87002
HEad  -58.252 1.68851 4.97641
LeftShoulder1  -1.94126e-019 -3.10601e-018 -2.51263e-017
LeftArm  -3.6755 26.3732 -82.8797
LeftForeArm  35.2155 -28.0967 -4.42947
LeftHand  -0.270556 -3.52801 3.77683
RightShoulder  -4.96962e-017 0 -2.36833e-017
RightArm  -26.1427 -23.3755 74.3218
RightForeArm  60.7304 11.0137 1.52984
RightHand  -0.31139 -2.17431 -10.9962
LeftUpLeg  -10.6228 15.8579 3.6869
LeftLeg  21.1879 18.4731 5.7044
LeftFoot  3.80468 -0.043849 1.46336
LeftToes  -23.5879 1.83942e-006 5.51297e-008
283
root  -36.082 34.5951 9.30564 -175.276 74.1927 -179.896
RightUpLeg  -7.57729 -16.0509 -1.44703
RightLeg  15.4804 -6.60792 -1.37578
RightFoot  -0.299467 -0.00144498 0.221867
RightToes  -22.1549 -0.0937943 -0.193534
Spine  -0.781955 -0.115589 2.0539
Spine1  -1.60456 -0.205736 4.78676
HEad  -59.0524 1.03032 5.39978
LeftShoulder1  -1.94126e-019 -3.10601e-018 -2.51263e-017
LeftArm  -5.04104 25.3281 -82.8929
LeftForeArm  36.4753 -27.1361 -4.37952
LeftHand  -0.27063 -3.42339 3.81561
RightShoulder  -4.96962e-017 0 -2.36833e-017
RightArm  -26.7645 -23.4105 74.659
RightForeArm  61.5459 10.5611 1.5387
RightHand  -0.307778 -2.26466 -11.1687
LeftUpLeg  -11.1788 16.5947 4.10708
LeftLeg  22.1639 17.7643 5.81977
LeftFoot  3.31184 -0.031388 1.24729
LeftToes  -23.6542 1.83942e-006 5.51297e-008
